<mxfile host="Electron" modified="2023-06-13T09:52:22.199Z" agent="Mozilla/5.0 (Windows NT 10.0; Win64; x64) AppleWebKit/537.36 (KHTML, like Gecko) draw.io/21.2.8 Chrome/112.0.5615.165 Electron/24.2.0 Safari/537.36" etag="S12pcR_sNULGP9vMztiE" version="21.2.8" type="device">
  <diagram name="PÃ¡gina-1" id="9aEVMeUNST5DkCz9IC0x">
    <mxGraphModel dx="2058" dy="828" grid="1" gridSize="10" guides="1" tooltips="1" connect="1" arrows="1" fold="1" page="1" pageScale="1" pageWidth="827" pageHeight="1169" math="0" shadow="0">
      <root>
        <mxCell id="0" />
        <mxCell id="1" parent="0" />
        <mxCell id="MZBOyF7Ds9UR9BQGZ3Pa-43" value="" style="rounded=0;whiteSpace=wrap;html=1;fillColor=#f5f5f5;fontColor=#333333;strokeColor=#666666;" parent="1" vertex="1">
          <mxGeometry x="171" y="117" width="429" height="413" as="geometry" />
        </mxCell>
        <mxCell id="MZBOyF7Ds9UR9BQGZ3Pa-2" value="&lt;font style=&quot;font-size: 18px;&quot;&gt;Sistema Operacional Linux&lt;/font&gt;" style="text;html=1;strokeColor=none;fillColor=none;align=center;verticalAlign=middle;whiteSpace=wrap;rounded=0;" parent="1" vertex="1">
          <mxGeometry x="268.5" y="125.5" width="239" height="45" as="geometry" />
        </mxCell>
        <mxCell id="MZBOyF7Ds9UR9BQGZ3Pa-6" value="" style="shape=actor;whiteSpace=wrap;html=1;fontSize=18;fillColor=#dae8fc;strokeColor=#6c8ebf;" parent="1" vertex="1">
          <mxGeometry x="30" y="260" width="40" height="60" as="geometry" />
        </mxCell>
        <mxCell id="MZBOyF7Ds9UR9BQGZ3Pa-7" value="&lt;font style=&quot;font-size: 18px;&quot;&gt;Leitor(a)&lt;/font&gt;" style="text;html=1;strokeColor=none;fillColor=none;align=center;verticalAlign=middle;whiteSpace=wrap;rounded=0;" parent="1" vertex="1">
          <mxGeometry x="20" y="319" width="60" height="30" as="geometry" />
        </mxCell>
        <mxCell id="MZBOyF7Ds9UR9BQGZ3Pa-8" value="" style="endArrow=classic;html=1;rounded=0;fontSize=18;entryX=0;entryY=0.5;entryDx=0;entryDy=0;exitX=1;exitY=0.75;exitDx=0;exitDy=0;" parent="1" source="MZBOyF7Ds9UR9BQGZ3Pa-6" target="wLvqDNVFFS4f-JtVfwTY-1" edge="1">
          <mxGeometry width="50" height="50" relative="1" as="geometry">
            <mxPoint x="101" y="267" as="sourcePoint" />
            <mxPoint x="171" y="267" as="targetPoint" />
          </mxGeometry>
        </mxCell>
        <mxCell id="wLvqDNVFFS4f-JtVfwTY-1" value="" style="rounded=0;whiteSpace=wrap;html=1;fillColor=#575151;strokeColor=#595959;" parent="1" vertex="1">
          <mxGeometry x="196" y="182" width="384" height="245" as="geometry" />
        </mxCell>
        <mxCell id="wLvqDNVFFS4f-JtVfwTY-2" value="&lt;font color=&quot;#33ff99&quot; style=&quot;font-size: 18px;&quot;&gt;Terminal&lt;/font&gt;" style="text;html=1;strokeColor=none;fillColor=none;align=center;verticalAlign=middle;whiteSpace=wrap;rounded=0;" parent="1" vertex="1">
          <mxGeometry x="336" y="190" width="104" height="25" as="geometry" />
        </mxCell>
        <mxCell id="wLvqDNVFFS4f-JtVfwTY-4" value="" style="shape=actor;whiteSpace=wrap;html=1;fontSize=18;fillColor=#dae8fc;strokeColor=#6c8ebf;" parent="1" vertex="1">
          <mxGeometry x="674" y="41.5" width="40" height="60" as="geometry" />
        </mxCell>
        <mxCell id="wLvqDNVFFS4f-JtVfwTY-5" value="&lt;font style=&quot;font-size: 18px;&quot;&gt;Leitor(a)&lt;/font&gt;" style="text;html=1;strokeColor=none;fillColor=none;align=center;verticalAlign=middle;whiteSpace=wrap;rounded=0;" parent="1" vertex="1">
          <mxGeometry x="664" y="111.5" width="60" height="10" as="geometry" />
        </mxCell>
        <mxCell id="wLvqDNVFFS4f-JtVfwTY-8" value="" style="shape=image;verticalLabelPosition=bottom;labelBackgroundColor=default;verticalAlign=top;aspect=fixed;imageAspect=0;image=data:image/png,iVBORw0KGgoAAAANSUhEUgAAAUAAAACECAYAAADhnvK8AAAACXBIWXMAAAsTAAALEwEAmpwYAAAAAXNSR0IArs4c6QAAAARnQU1BAACxjwv8YQUAABbWSURBVHgB7Z1fcBvXdcbPXUCy6Lg1Y08yTuupqUydt1SUphaVPERQXjpJOjUVT6edaRpRTt1JKdqkNR3XD3VEOu1MkoeItCU1UzsJ5SYzdmesPzOx/WZCfmhFO7Uo983OxHSnaT1uFDGtLVIWsLfn3LsgdwEsgAWwwO7i+9kQQGAXuwB2vz3n3HPOJQIAAAAAAAAAAAAAAAAAAAAAAAAAAAAAAAAAAAAAAAAAAAAAAAAAAAAAAAAAAAAAAAAAAACAHqEoweiv7xshp1wgR42QVnfx3vI93wTl3QfXWOMXVvnBmr3py3y/Qq5eVadeWyEAAPCRKAHUU/sKRO5+3i2+16N8P0zdpcg3FsXyOXXip0UCAAw0fRdAK3p6nG+HYhC8RlsWa7FIWp9TJ189TQCAgaMvAqhnCsNUujbND2d6K3ohaFolsQ7Lak597+IqAQAGgp4KoOfisvCpcUouRXaR5+AiA5B9eiKAnpt7jB8WKC2IVajKhyGEAGSXWAXQuLrl9WMsJjOUVjQtwjUGIJvEJoB6aoxdXT2biBhfV9Cz6sSrcwQAyAxdF0CTu5fXP6Q0ubutIm5xWR2ANQhANnCoi+gj+w5R3r1EWRQ/QZKv8/ptPbX3GAEAUk/XLED94NjxVMf6oiKxwW1DD6v54hoBAFJJxwJoc/rWz1JWrb5GwCUGINV0JIAm3pfTS/XrcgcEiCAAqaVtAYT4BVgj1z2AhgsApIu2BBDiVxeIIAApI7IAQvwaskYltRvuMADpIFIaDMSvKcPy/ZjvCQCQeKLlAeb1WYhfE+T7ERGU0XEAQKLJt7qgl+c3Slnnd/cQ7dpv74duIfrVfxP94i2ipWft41YQESytSzXMQQIAJJaWYoC2rpfmKcsM/QbRA98muntP+DLLLxA9z1/D+v9RS2h6WJ1czvb3BkCKaeoC23iWNDXIMLd9gujRZxqLnyAWoFiFIpatoOi4nrwn+1YzACmleQxQBj0y09ElhC/+hRXBRrz0NNFFtgCnT/HyX6OWUc5ZxAMBSCYNBdC4vlkf9JBY39iXGi/jFz8RysKfNrcWK5h44LXBqZEGIEWECuBAuL7CvojiV+HT+6l11DGkxgCQPMItwLw7m3nXV/jtT4W/Vk/8nnrEDoLcfgdFwvZIBAAkiLoCaK0VdYgGARnUqEeY5XeFB0Iuv8IC2CRmWEtBT/1+gQAAiaG+BThI1sr6+7XPSbqL5P1Vi19leRG/a+9TdHJopApAgqgRQDuD2wD19nvr32qfkwEOSXURIfTzizetIMrr//kWtQGsQAASRB0L0J2gQeLfX6l9TkROrD9xgcUVriDxQnleKD5L7QErEICkEBDAzMf+xKor/AnRVx4j+oKX+/fW6/ZWTZgICmIZtloWVwusQAASQrAW2I78UuYQMbtvhuj3qlJXDrAYPvU3RD/6Zv14X0UEFybt3yKaInzPd1rdlhvnf4oEAOgrAbXTR8bezlzis1h8UulRXb4mVt3Sc0Sf/pwd2JD4nixXLylaRE9EUGJ/b7zSei1wOGuUH9qJCZUA6C+bFqCe2itWyQhlBbHexNWtV7Eh4nf5AtHcmS1hFDf4iUnr3ooISrxPUmREHH/2un1cPSjSPsN0Y32Cst5gAoCE43eBxykrSHnbnz9Wv763In7i2vqtQhFKuYXFBLuNonupSwKop8aWSLdw8VIkFucaab1IZedCHJ2rbRaBy7EGNbrZPk3Rqpk8inSRtt18Pi7L125by3G8y3wfSg+TVmubn5s0//BuUZ34aZEiYgwErY5TN1D6YXXi1XNRVjG/sVw4Na10Mh2rifPbNLdh/usc78ccdRkzb7ZWE+Z3J70Q9bM2fO/ZAtG7Gzv5M/zA/MaOPquefPVo5HW9z+8XwHspC4jLe9/DVJcw8asQlhQdD6PSJKFTMfBKFguRQrdKFfggkAN1tlsngCc+x8y+VHZma59G7GM+KW6sr/J2Fyl/80K3hDC4bfJtW8n/vmom/tw8Cs+hHhZk92C0+VtU9+riRRyIWhYFzzsr2N3gi0ppfYQfHaCIbHZ03/T0lFyguiqAevKeCX7fWe+3H/G20TUBpPf45pQL/I895rV6WD+4l1oSQTna8u4hexwIapcZBbYHUAbK3mSQol3xkzjfG69QDxkmdz1KQXEMqFm2LC512q2Gjx8RHzmxCk0XNiLCJ8iN9UvdqI+OtG3/PjjOEkVCXaDucTXS0q6u/n0K+sje6NkaMsgZd4zfcaoNqeHYsx60mmn3WPIsQLeQ+tHfP3ssvLFBM/GTjs//+AjH/e62j3uFa67i56m7LPBvGXLF1bvIhjoKvidHO+leba2TmqYZRTJXff0OnxF83XWHzXa12r95Asq9TLFAtJvaxFobNdtmq07xd+qu2G2bJflz692B7WuKZH2qExf5YrGvGL6Ee9yzdgR+bxX+fW7bEcHyDN2jWf7ndKtLe55CrCluemZ0mEr1QmmxZz0otmy/wff3U0Q8AVR9tkQ6QARNhE3Eqx7NxE/ifT/+JtFffofo+e6EeFrGxgFnqJsod0U9+Vox5FV5fkFP7psgx5ywFctiXK7S7cTGTFwsmEswx271bJ0lz9n4k3vWJxSj7I7OtN01WznBpPLwDtxF87JYuh9ujPNnv5fjoJFdPxbBYthrbElvCSrHHNWT4ct2BRbySN9dL1LcStsLIa+I8Hb3OK9G0QQfX49HjWt7idB6lNJIJU+vXfErPmdzAB86ZeN/vRj88MNB3H40S1WnLi7y3eHgs7nIg2B68rOjAZdK02KI+NntysFZctgy0n6xaCv2XHfbTcRAYo7y2XkfD2Zi/mZFx1o5fnpY4LB1DJlBr02Ge5D8X7ECI+GYAymN8b9Oxc90e/nJVgJ091JcolF6vy8XH29krrj1RBtCpCQYHfi7qUtmr9DOgu+pQlsXgepta3eBBo/hlprtGuuvB2i/J8kuekAEnQLFjbUCR6Ks4pBTirRCIqiIX1gb+2biJy6vNDOovIcMgFzskwDqXD+t78ubj1pJo6kh6DlEcKGDy334wQhFRVUNDLi5SDG9VBMQFjXd6ALiDXAeqr9uF3dJtuO3yMt0gf/2x7d7kWWivBSXlhEXOF3ubyfiJxUckuy84xY7A1zl9Ref7qS2tzP6WXnjugE3MLIlptStW48jnFilqmUdnT4PpJ8o7U91aGIF6q04qYif0i0PnETD30RFr1hL3z8Yp0Zj64oeFPVItfZOe1f+PtGJ+InAfeurNknanyojcb9+ub9Ckr7/jY2oQtQ/4XL1auDv/AB1MSo5fOHyC1l9KzCQP2iXm6W4CLi/1vKzg0a+eG9OR44zt7JlFnV/DiCP9ORajgU6fBW/i9KAxPo6ET+p5ZU8Qan39T8vgyD9xKFdlBDiqAyJje03zgWfYBEYpClIS86s76/6VqC/coWtJHXyYizWX82AlKvP+ba75QarmNzgknMpeEFo3QpkFzgF7kcn4lep8f1KnTxB6erSL9e3gu6jFeU4fsFIVQxNza/I/hZ9Tw3z57lkyrAGAO9i5Rv4CVqBJkcyEF6J0frzD0iJ0PpH2LUu+pYsxJb1UHL8aU0tW4HsAid8BLgifmGTkTcSP3+aS3VTBFnvjW4m97dN/75/Hbgipy8tpKQOB1wsg5qVrkZ6amw+8zPx5a/P+j5/0Ar050jGaP3ZbQUSrIuB16ot9fIHcbjBfO6rVQpcEFqzAp1Et7+qjNBeebf+6/6Ji+q1u/KnufgRYXzxaUoK/cgFrLEQdNcrUmLHWEGuPlAzsmk/1zSPCIoQLrVVNpYCrBXsBK1AFv2a31aVD1NMeDmGW55ELlj3W2Opayee3+LWP9CUuz7nuyC0ZAU6lFTE8nv0GTtg8cRf1c7B0Uj8zrBr++br9cVPrL5eV3w0I/rgQ0eYlAWnqrNJOax8LtkYd6usDlTFgPwUOM69aKzCLAphfmM+YAXmeNQ3WCHTVveblnGC+ZjqieXaC2nw4joaxwVfzc5KOvPVmhzTJlZgnpKI3+2tNCgVEXzoH4juvDt8ykpJc5EOz5X1q5E63x/9HWUarUbq/+iOtP/hAS9nPNCxxa40p763vEopxYuHSRLsrEn69df8bi5kmjAsskU4Qfmhg1lpRisWFl/QFjbTXRRNBBYwYYIYcRx/jmF9L0IurnldueAOe8n/Reo2wwWiq+cWqLx92ivuqFiBxbBVkmcB1ov5iQhWLEGJ6dUTv8pIb3WaS/XrnXdzTjiKT4TcUu1NneWfm62F6q4pobW7qUOEkD/LhDq5vJNcc+IX6yxWoNL6Uj/CDrERtAK3kPLAGEf2TfODYJrN2XrLmX3whyl0LhZLvB0rMFkCWC1+IlYVl9Xk6il7LwJXT/xEKP1pLtWvJ1T8+pR+UuQtH8iK+FVja36XD7AFtJNqhXC0pRKylFAbC/Qoq8gNHyLx4bbggIZUf4ShAukw8QyECGIF5jYWqmKBoZkBeZsdnpCBEBG25Rc53vembUN/pSpFxbS5/1sriPL4Tq991VOPhLe/r4hfv9NdekcxtNxJ0a/537dZFM6nKuevA7zPeYDdxNlAVYRNG5nPzLwsYgWWNl2/2K0/Q6D3n1R/NAqjSIxZT3t/DLfdfagJYgXy78pW4MaC7/fe71mBxerlkxUDfGIy/DV/Fchtv2VFTyy+5RfCcwTTIX7dPQGVe1qdeG2RQADbz29MxGHzJMzSvCwmFnjkM3P8+x831k/Zidf6M/hiyVo1TLORqhA9tXdtU6Dj7BEYIRaY92o4RyjJiLg98B2ia++zS/yctRBlsiIZDJHn0yt+TFVJF4gPyZsr3TTteyYxVTjdQJ3813m2dFfIddfitv68aQi24qi58ioPQu1sslaRKi2z4uiF6WGswAe/cJWvA4/zBeG73tMc+32/UB31YxdYv0NKUaL51btsHR5hobuD3dzd1tWVsjYRQRn1lefv/NTW8lf+yy6fCrdXZcMFSwF2xHTvymbeWtamgCVq2LS1u0jttU833NxZmWemZaQX5uQ9o3H1ZVRPvsQiODZPLj3k/c5eLFAH5r3IR+ri0WvE1ZXJy2Vk9/Y76leDSFcXEcEHvmVFUKxDEb/0jPZepvSSQvHGBadT9LEC0S/X93fcYNpRYg3GIoCG8hAr8gaHBcwseEKBqnY6b7pqOAm0AEX8pk+G1/9WkIEQI4IcE/zi13iAZCFdqS46wRegZmj9603vQXNgm08MNVdsvl6+c8tLz/4xy+//mHiPSX8AvePKRrD3H+lLrV9Y9O6tOKDar/m3i+v3U6eKYgWeZivwmG9/C/5lWABzRXIimK69oFXxqyAiKJZiGpOcVTm+K2DsKNn3Sk7XMF2RGEvjwLaZm/WX1yYCV+L8LZG+A/Me763u5gv3vbRWXOCT6GorJxGfDCLao1uBezMqDiITaGu1pk68uqflNafGZNCpEoct0NWiiGF8VvltbAVe2TjszRxYg2ODpTo5bkFU8ROKz9rOLmkk4smfKJSq2vecpJaELr45MXWgd5y+FDkV5d2NET5yXzZJ36X1l1kEP2reuwH62B+K4M1QYPqH+om7IBzzPfubaGiK2FGkquSyZEbiY8N4JG5Z9rFY7/XKrHByIBeo30QVv/X/5ZHgHxAtPUvpRK+kOQ/NS20Q96cyteU4la7NsqUlKRiabvsY3/FAFXuqdNN1ZYQrr8+QP+tAO9Hn8nBMWV9FyEaNCL6rvqz/+rOrdG27JtmsMfL4wXu88Y/wX1feY6uluv456skL7G8YaLMV7SKS31ih0vatdBgeDWYLfj7WMMbHPiJW4JxN2wnijQmr/h8IUcVPRnoXjqRY/Ehyp1Ls/lZwjgb/ZqvMpZ+TdmdYdA6yW3yA6IPDdMM9TnlXpt0b3VxU09tttWnafm1V1vU9M8rC+nPaKJ8hxe61bFMsTXGTZdvr62Itngm+idQ/D0YyeFep7uoc8SJiq1YCx32BLfhhipFGVmAlKaZI/SSS+HG8cvknRN8+1NtJzOOgqnVQGrFpF8pafJtPioXgHLeik3uZLTaZqGY64H6KgJXV56kNzEkk6wZFUBhnt/yHZpsiiI7zurftQnAxvZjVEsDYCXZ1LrZ1EalumhBXj0A/YgVSbWmgEcCa3v29JIr4XWOX96lH7WBHFpoaOEPdsrx94uNcpR4jVRY8mLbHE6RGI2r8mr5qDsRtQ3s6scDMukZA9SI13mbV9pU0f4ijQ8rW9651HL+Brrpv810Co7VtvJfe5Vu7vR6S264vkn/bbs6laOjA4x07mmpXiBWo8763Oc/q3tt+aS2Ln7at7UX4slPTW+xG/E+EQE/uu5+U/hxbP/9Bzo6+hDPUqX8Rt+aTXoWAWAm7AhM+Kb1iQi35m093K+7pCehh/fV9c2zxTZOt7CjULGjq3dUzVIqxPrakjvI+vMPbupUF8AnqIurUa4v8G5P5jfk77OgziPiUbrrL7Kd8J1EpOXs4lGGrK8pOWx6MLdsbO2o/j/MGh0Fa34+PF6TM7RyVt4+wmP8Ov1vr59HHv6R53YO87oxZV6nTm7kI3oG7RL2iVfETq+/Hf5+U9vXdQ6uJWNuUDzCBVvhsHWSm4QHoOoEMaB7RuxpME4iJlsRPe63rv5/NHn4ltRNBeAD6S1U3GMffQiYemoqf5+6+9H17n0V60aoIANCUoAByjISfiU8Am4mfpLacWcieu1uNKsP1BSAB1BQByyxaFEdSdCPxkzjfhX8mWnpuAFrW60tRSocAAPFRpyGqqpsx3RFh4jdQwufRTuUDACAW6raB6aoVOHQL0aP/VCt+0sx0kIRPMJUPy58kAEAiCJkUqUuTqYjlN/Sb3oRGPiTGJxOTD5L4GWKepAYAEIm6AuhVhnTWKaPi9srt4ovW4qvg7948OCwh7w+AZBE+LWZJitzbLOnxx/zMZEZVIijP1evunGVK6n4CACSKUAG0kxnnHqeoVATPH/OrJ4J376YBYh55fwAkj4YTo8ssU3wXrTzuvhkiV2refTdJbpaJi6ZPsAi+YEUwSsPTNCMNAvJDiP0BkECaTgZi6ipNHzf1UWqH2z9hR4LF5ZV7mdryZxmt8KgHSt4ASCwtzYakj3xmxk64DKKh59B3DoDk0vJ0cHpqTARwhkCL6LMsfl8mAEBicVpeMn99zk5/B5oicb9Sdat4AEDSiDQhsIkH5vTLvNZOAvXxWr0j7gdA8okkgAJEsBH6Ko+Af16dei0Dkx0BkH0iC6AAEawHxA+AtNGWAAoQQT8QPwDSSOuDIFVszspVOzXhYCGfH+IHQCpp2wKsMNCWIAY8AEg1bVuAFczJv+26dDiep8FB6vuWOp3bFgDQXzq2AP3oqX2z/O83uv2+CUPzf0fVyeVBEnwAMknXhSrTLrG4vErdb/slAgDSTmyWWsasQXF5F6SrCybZBiA7xCpOXieZY7yZQ5ROIRThK5LrHsUoLwDZoyeipKf2jpNW3+WtjVA6hNAKH6nH4e4CkF16KkZ6ct8EOfqrZGecS6IQQvgAGCD6IkJ68p5RctQ0P7yXd2GY+iuG0rZ6jS3UczzA8QyED4DBoa9WmJ4pDNOHG+PkuH/EuzJOvdsn7d0X+XaeBzdOY3ADgMEjMW6oEcPStQIZq5B28a6N+l7uZD+179Eqv9N5fnCB8jcXIXoADDaJHZCwgrjBIqhZDM3gCd/rYfvYuM1ha4o7u0ZKr9h7uszLX6b8jhUIHgDAT6pz9EyaTYUdO9YgcAAAAAAAAAAAAAAAAAAAAAAAAAAAAAAAAAAAAAAAAAAAAAAAAAAAAAAAAAAAAAAAAAAAAAAAAEgk/w8Xwzbojd24eQAAAABJRU5ErkJggg==;" parent="1" vertex="1">
          <mxGeometry x="620" y="176" width="121.21" height="50" as="geometry" />
        </mxCell>
        <mxCell id="wLvqDNVFFS4f-JtVfwTY-9" value="" style="endArrow=none;html=1;rounded=0;startArrow=classic;startFill=1;endFill=0;" parent="1" edge="1">
          <mxGeometry width="50" height="50" relative="1" as="geometry">
            <mxPoint x="693.47" y="183.5" as="sourcePoint" />
            <mxPoint x="693.47" y="133.5" as="targetPoint" />
          </mxGeometry>
        </mxCell>
        <mxCell id="wLvqDNVFFS4f-JtVfwTY-11" value="&lt;font style=&quot;font-size: 14px;&quot;&gt;&lt;b&gt;- Finalizar embalagem pedido&lt;/b&gt;&lt;/font&gt;" style="text;html=1;strokeColor=none;fillColor=none;align=center;verticalAlign=middle;whiteSpace=wrap;rounded=0;" parent="1" vertex="1">
          <mxGeometry x="650" y="264.5" width="210" height="31" as="geometry" />
        </mxCell>
        <mxCell id="N5YN9J6qBqu4gPnAQsqx-2" value="POST /fulfillments/pedidos/{orderId}/packaging" style="text;html=1;strokeColor=none;fillColor=none;align=center;verticalAlign=middle;whiteSpace=wrap;rounded=0;" parent="1" vertex="1">
          <mxGeometry x="660" y="291.5" width="190" height="30" as="geometry" />
        </mxCell>
        <mxCell id="N5YN9J6qBqu4gPnAQsqx-14" value="" style="endArrow=classic;html=1;rounded=0;entryX=1;entryY=0.5;entryDx=0;entryDy=0;" parent="1" edge="1">
          <mxGeometry width="50" height="50" relative="1" as="geometry">
            <mxPoint x="650" y="246" as="sourcePoint" />
            <mxPoint x="610" y="246" as="targetPoint" />
          </mxGeometry>
        </mxCell>
        <mxCell id="YTs5Mr_dDZdO-FjkIWpx-6" value="&lt;font style=&quot;font-size: 14px;&quot;&gt;&lt;b&gt;make build-start&lt;/b&gt;&lt;/font&gt;" style="text;html=1;strokeColor=none;fillColor=none;align=center;verticalAlign=middle;whiteSpace=wrap;rounded=0;" parent="1" vertex="1">
          <mxGeometry x="72" y="280" width="118" height="30" as="geometry" />
        </mxCell>
        <mxCell id="YTs5Mr_dDZdO-FjkIWpx-1" value="&lt;font style=&quot;font-size: 14px;&quot;&gt;Docker&lt;/font&gt;" style="rounded=1;whiteSpace=wrap;html=1;fontSize=18;fillColor=#ffe6cc;strokeColor=#d79b00;" parent="1" vertex="1">
          <mxGeometry x="300" y="479" width="80" height="40" as="geometry" />
        </mxCell>
        <mxCell id="YTs5Mr_dDZdO-FjkIWpx-2" value="&lt;font style=&quot;font-size: 14px;&quot;&gt;Java 17&lt;/font&gt;" style="rounded=1;whiteSpace=wrap;html=1;fontSize=18;fillColor=#ffe6cc;strokeColor=#d79b00;" parent="1" vertex="1">
          <mxGeometry x="196" y="479" width="94" height="40" as="geometry" />
        </mxCell>
        <mxCell id="YTs5Mr_dDZdO-FjkIWpx-3" value="&lt;font style=&quot;font-size: 14px;&quot;&gt;Docker Compose&lt;/font&gt;" style="rounded=1;whiteSpace=wrap;html=1;fontSize=18;fillColor=#ffe6cc;strokeColor=#d79b00;" parent="1" vertex="1">
          <mxGeometry x="390" y="479" width="90" height="40" as="geometry" />
        </mxCell>
        <mxCell id="YTs5Mr_dDZdO-FjkIWpx-4" value="&lt;font style=&quot;font-size: 14px;&quot;&gt;Maven&lt;/font&gt;" style="rounded=1;whiteSpace=wrap;html=1;fontSize=18;fillColor=#ffe6cc;strokeColor=#d79b00;" parent="1" vertex="1">
          <mxGeometry x="490" y="479" width="90" height="40" as="geometry" />
        </mxCell>
        <mxCell id="YTs5Mr_dDZdO-FjkIWpx-9" value="&lt;font style=&quot;font-size: 14px;&quot;&gt;Make&lt;/font&gt;" style="rounded=1;whiteSpace=wrap;html=1;fontSize=18;fillColor=#ffe6cc;strokeColor=#d79b00;" parent="1" vertex="1">
          <mxGeometry x="196" y="435" width="384" height="40" as="geometry" />
        </mxCell>
        <mxCell id="YTs5Mr_dDZdO-FjkIWpx-11" value="&lt;font style=&quot;font-size: 14px;&quot;&gt;&lt;b&gt;- Webhook pedido entregue&lt;/b&gt;&lt;/font&gt;" style="text;html=1;strokeColor=none;fillColor=none;align=center;verticalAlign=middle;whiteSpace=wrap;rounded=0;" parent="1" vertex="1">
          <mxGeometry x="656" y="330" width="190" height="25" as="geometry" />
        </mxCell>
        <mxCell id="YTs5Mr_dDZdO-FjkIWpx-12" value="POST&amp;nbsp;/envio-acl/pedidos/entregues" style="text;html=1;strokeColor=none;fillColor=none;align=center;verticalAlign=middle;whiteSpace=wrap;rounded=0;" parent="1" vertex="1">
          <mxGeometry x="655" y="350" width="200" height="17" as="geometry" />
        </mxCell>
        <mxCell id="YTs5Mr_dDZdO-FjkIWpx-14" value="" style="group" parent="1" vertex="1" connectable="0">
          <mxGeometry x="654" y="226" width="140" height="38.5" as="geometry" />
        </mxCell>
        <mxCell id="wLvqDNVFFS4f-JtVfwTY-12" value="&lt;font style=&quot;font-size: 14px;&quot;&gt;POST /pedidos&lt;/font&gt;" style="text;html=1;strokeColor=none;fillColor=none;align=center;verticalAlign=middle;whiteSpace=wrap;rounded=0;" parent="YTs5Mr_dDZdO-FjkIWpx-14" vertex="1">
          <mxGeometry x="17.733333333333334" y="16" width="112" height="22.5" as="geometry" />
        </mxCell>
        <mxCell id="N5YN9J6qBqu4gPnAQsqx-1" value="&lt;font style=&quot;font-size: 14px;&quot;&gt;&lt;b&gt;- Realizar pedido&lt;/b&gt;&lt;/font&gt;" style="text;html=1;strokeColor=none;fillColor=none;align=center;verticalAlign=middle;whiteSpace=wrap;rounded=0;" parent="YTs5Mr_dDZdO-FjkIWpx-14" vertex="1">
          <mxGeometry width="140" height="20" as="geometry" />
        </mxCell>
        <mxCell id="YTs5Mr_dDZdO-FjkIWpx-15" value="" style="endArrow=classic;html=1;rounded=0;entryX=1;entryY=0.5;entryDx=0;entryDy=0;" parent="1" edge="1">
          <mxGeometry width="50" height="50" relative="1" as="geometry">
            <mxPoint x="650" y="294.83" as="sourcePoint" />
            <mxPoint x="610" y="294.83" as="targetPoint" />
          </mxGeometry>
        </mxCell>
        <mxCell id="YTs5Mr_dDZdO-FjkIWpx-16" value="" style="endArrow=classic;html=1;rounded=0;entryX=1;entryY=0.5;entryDx=0;entryDy=0;" parent="1" edge="1">
          <mxGeometry width="50" height="50" relative="1" as="geometry">
            <mxPoint x="650" y="350" as="sourcePoint" />
            <mxPoint x="610" y="350" as="targetPoint" />
          </mxGeometry>
        </mxCell>
        <mxCell id="ivjEFMMRWI5rhiL4oUip-1" value="" style="shape=image;verticalLabelPosition=bottom;labelBackgroundColor=default;verticalAlign=top;aspect=fixed;imageAspect=0;image=data:image/png,iVBORw0KGgoAAAANSUhEUgAAAXAAAADBCAIAAABZmnwMAAAAAXNSR0IArs4c6QAAAARnQU1BAACxjwv8YQUAAAAJcEhZcwAADsMAAA7DAcdvqGQAACWlSURBVHhe7ZzZsdzKDUBfAE8q33IY/n0xOAX9OQsrCv8pAoegPByUgcbSaDTQJO+dhZzBqVsigUYD6IUQZ+MffxZFUdyIZxaUb9/++vn7f//7/fOvb99YVZyAp6xLC9n49YNVxY349s/vf//P9+8PWU0sKN9+/OK1bLuIGm4IuA/dVkE5J09cFwy8u6BwntCh9s+ShxYU3Tsk//Xzl57fiqygFIVjf0Fp/wv+/vkT/q2CssFDCwotCEsGWFqoAvRfgLtz6Tc0439i5kaH11i7d2S79Cazgej/nF8/1FOvdPLfUSdM25LlGd6Rjf45f7T89ZP0klXzlejJVXdv4oJ3kDSGxgWyO8TQz4LZPpvPpuZzJ2qG0I1aiXB+1phhDfbZeAFKl4Wclgz6bK52JfOGfP/397//V/6koMCc/e0/XW+VH//89iH6v/2jT2n3s6Mq/YELGBnx9mlb0244WkGysee0wnSO+tZRRbdvFLeBZNdyLNuqsTQb0mdkebYtyP4V55MF3q/QlY6gooxSPfRFTRQXLch2nM8wHyDzkxHaZ/OZjZdEQC2JTfsZsAn3QzZewsXdpHnDBWG5ELAK/JunRe9QACwc/2L9938Neq0jqJe+1o89z/gjWw+7adoF1AQ5IZu2zYLuak4iSXTucBuINq5uxB521LteM4s8w2TcQPp45SjteERFps/jqgXqjRmdobVh4Scks3fzpmnDuebjbAhSsTAl4MJtYuPSKelnXNxN0LNJrCBgUeFeQ+8yekH5x3fQ612GmgF0h8J6U4AGP2P3kGVBmZa2bSwHbyzfJBsIWOwhF2VxAdDOQWWzWWxKIMszvHgAGwhFMVO9yBw61ePRgWrwSZbkX1EHLAsLPyGZvfNvh9nGhqmLyeCcdCyMHVE0bsfQ3Y9PidIZ85lxcTfBxEzQgvCFQwvE+GYKKKiO6AnrxwLEr3fkz74amlm9hzIvbfZfE20UaGBx3H8k0bnDRVlcALhzlK09tzNPRcJKXA0sR2nn7qk+iQuQJQtCmk/uJ2Q93nA+AZAw93YgjeKy1XGyuJWeG5fGzcaruLiboGeTWEG4gtJf2nztDmUPf+CKmM2hn/JkS0sryILQdhgurJ7TBqJW3kTRqrso2QXAu/7IvgnzBDDA5MptdOxLcSUBTkvMMj33zeLuzgfI/GSE9pogi5J2F/ENW1SRRnHZ2gECGMv4mVnsh2y8hIu7icRJMzkzPDNT/kf1M7BzsUC090qwOsCdhRQI1QP4nojVTwWFbbbeN7Hg91DaGjO6abKlpb3VERseLPL754/2kYYMe+jS7L0TwOhhwlq/4QLwHba2XZYnYBt0vLJaDQmqCXBa7YiKRN/8WPc9LlnSucN2ICdA5icjtNcE2cbMJ4rUZdZYJG44PwuMud8PNgaNdxE3w2RDbF9mZ+N+BQXor1agNJgCAbWD9VJlSJkVFGpie/jbfFOWj+em7Tfckiy2mdXrpCiKk3CRgoIFxBSUsb4URXESrlFQgPGe+B2ryfCiw7L16uCivNt4X4PLFJSiKM5PFZSiKG5GFZSiKG7GMwvK/LFl8RTwzQqzCpvr4uyLk2M/Br43WFDsm1+wT6jhhtD2Y8FQBeUkXLSgyLdXrvcNlAfz0IKie4fkeh7KG3K0QJyhoLT/Bet5KLt4aEGhBWHJAIUG9gz9F+DuXHApiXFXdb2ssXbvyGd+vcl8Ckj/59TzUIjQT8hi3oDMjwnbm/osTJ/OhvbhvGUs5s2t73pxmzHGalO3EfRtwW/N6zdck2++WuVHPQ9lQZZn24LsX3E+WeD9Cl3pCCrKKNVDX9REcdGCbMf5DPMBMj8hMm+cg7hf5WPPMQexJ2g8LDRC+2zeSJxZzNsccQ/NEThII74t9jc4eocCYOGo56E4ves1s8gzTMYNpI9XjtKOR1Rk+jyuWqDemNEZWhsWfkLc/PS8Ez9eL+YkAmTIgnHIorofE3NmM9pR+uERFNCEZ8bVTtDh8V4vD6yM/ZVwLyhf+7Wx6x5Sz0NBbCAUxSy7AFI9Hh2oBp9kSf4VdcCysPAT4vyMeTuGvNl+HD5A7SxwPoG962jTGENz32zeWm+qKWxOmk3QoUmsIHzh0AIxvpkCCqojesL6sQDx6x35s6+GZup5KIhucBY1sBylnbun+iQuQJYsCGk+uZ8QTYRFSSudBzEgkZMQEaB2FnJ7p99MO5s3bm6Q0kZfgA5NAgXhCko9D4Utdf81n8f2TZgnwLt1dOV2NvaluJIApyVmmZ77ZnF35wNkfkI0ERJt39CPTZiWi4ZDrYDLNrO3egBbRj+OxbxZXPQFLZlg9i4BXylT/kf1M7AwWCDqeSi601q/vv/g3HfY2nBZnoBt0PHKajUkqCbAabUjKhJ982Pd97hkSecO24GcAJmfkIVx1tTVEFKG442BpT3qo3nLSOfTxd3yA5ioxPZldjbuV1CA/moFSoMpELDGrJcqQ8qsoFAT28Pf5puyfDw3uvFYbDML80pioVcoy0XxJC5SULCAmIIy1peiCkpxEq5RUID5npgb3obhxYUFb4FfsKAsxssWxfm4TEEpiuL8VEEpiuJmVEEpiuJmPLOg8IeFOz4jvDfZexDr9ybOk39RLLAfA98bLCj2zS+4OqjhhoD70O2rFpRsvEXxFB5aUPSaIPk9n4fyuYKSUQWlOBUPLSjZN8TgSoKropUbf+fSb2iwEPW+XY8uUa/dO/KZX2+avtZ5k+ehgPV2/pKnxLXmKz2gKmgmDdCVSmvFe8A9z08BUL0aV1HsBL81r99wTb75apUf9TyUBeSI0rD5w+mcp8SFCNjUXgPitGT61hvBZpM/MY+XXlRCz3aERuqHfshlN2v5kFgUn8b+BkfvUAAsHPU8FKd3vULQRnJwaSuZfzPeWE8iEGZCRiw01B+7a8emGByqGYlF8Tlg49pfCfeC8rVfG7vuIa/5PBTAeVbCPLPCkelJBMIo83jVH7uTIajszEgsis/hC4cWiPHNFFBQHdET1o8FiF/vyJ99NTTzms9DAZL84zx93N4Q60kEwihkxEJD/bE7SUNlMhNt918Un8AVlHoeClv26xrP+oW3hzD/LE8Xl4yaTaxXwiioHMerA2F37agKOGGbcd6K14Z3YNsQrGoc1c/AhsYCUc9DIb1ewOhT/PgOUW4WcsSCIcwzHdROPWBiDa1NrwOhrOhIU91tQTbjLV6e+xUUoL9agdJgCgTsddZLlSFlVlCoie3hb/NNWT6eG7kAZcBtZrXuvAxad1guiqtxkYKCBcQUlLG+vAxVUIqrc42CAugrg8YLVhOgCkpxdS5TUIqiOD9VUIqiuBlVUIqiuBnPLCj88Wq9a1Dcn/4eXPRlgtfGfgx8b7CgtM9QGLi6qeGG0FuNLBiqoLwn2X54ALjhdhcU+T7Rru99nJmHFhS9pkl+z+ehFI/kEgWFv6nwk77wVAVlLy/7PBQgyzO8Ixv9c/5oGT3HJNOTq+7exAXvIGkMjQtkd4ihn5DFvAHGfb82FvM52x8db5aPDwnI6ofzv2bOk8jmE6C0WMhpyaDP5mpXMicEvzWv33BNvvlqlR/1PJQFWZ5ti7B/xflkgfcTdKUjqCijVA99URPFRQuyHeczzAfI/ITIvHEO4p7PSQlIKBTV5zz22f7oeCUf7AwiWTcTBMw0HJHNP4khYBOOK5tPwmWySfMGcVaZnBP7Gxy9QwGwcNTzUJze9ZpZ5Bkm4wbSxytHaccjKjJ9HlctUG/M6AytDQs/IW5+XHdF03b2JNC5pdvLiSSCx6aI8/T5SHcSSaJzQjuyOLrdxPqfnVsoDgs7QM8msasAC2B/JdwLytd+bey6h7zm81CyPJ1/xe14NVO9yBw61ePRgWrwSZbkX1EHLAsLPyHOj70gvauWNuiz+Qztj47X5yPdSSSJzglnYLuPITA227jQFHaMO0PNLOwAEzNBr4IvHFogxjdTQEF1RE9YPxYgfr0jf/bV0MxrPg9lZ56KhJW4GliO0s7dU30SFyBLFoQ0n9xPiCbCoqTl/GvacA6nHUkssz86Xp+PiQuQROeE+mUxcaukeY76GYrDwg7Qs0nsKriCUs9DYUuzUeDs2LqGeQIYYHLlNiL2pbiSAKclZpme+2Zxd+cDZH5CNBEStW+2Ltl8pvZwemS8Lh/tTiJ3NtGtQwB9jgaOLE8Q0VFLsRl6KC0WdiBx0ky+Amc++T+qn4EVwwJRz0NZbETfYWtbZHkCtkHHK6vVkKCaAKfVjqhI9M2Pdd/jkiWdO2wHcgJkfkIWxtm6jB16l9D+6HjVsLkc1hFF20XjmsDWOCMbF2ATipMElvMJmGwIHDa33YijhSPTh/RXK1AaTIGAxWS9VBlSZgWFmtge/jbflOXjuZENLANuM6v7tXAX8CY1n8WduEhBwQ1vLoDxeigOF5Saz+I+XKOgALjnO++4++WOdwJvgY8VFKDmczGfbFEc5zIFpSiK81MFpSiKm1EFpSiKm/HMgsIf5uHr93o78Cz091amtxIW60UtBLSzstb3HNiPge8NFhT75pTuhhsC7kO3teFOCy7M7oKSfer8buvL48WZONd4H1pQdM1JruehFEBYUDLadXS6q+jB8Cfxp3x+ykMLSvh/CwCbBKoAlVx359JvaMb/fLpe5lS7d2Sb9iazcanGh8/1kPLfCdO2ZHmGd2Sjf84fLa/wPBTCuOEuMp/cFwMZV8aex6tQNxYafXbmOxcOMnnI7DfHO3o7ZB+uY8ZiHd1+A0fUJaQZY6yW6kbQh4HfmtdvuCbffLXKj3oeyoIsz7bk7F9xPlng/QFd6QgqyijVQ1/URHHRgmzH+QzzATI/GdYGfVKgFknXRfVwDg2qx76iJ6gbCwanR9GD08PNkZ9svFk+h+yzdSRxpjnHjNsRTClftKczMttPczTMwLOwv8HROxQAC0c9D8XpXa+ZRZ5hMm4gfbxylHY8oiLT53HVAvXGjM7Q2rDwE+LtWfLzpnoSlVlP3VgwhPpFerM9hWIhweZzyN5l4qZlRjtKPzxSODxLBrUAHR7vdXNgJuyvhHtB+dqvjV33kHoeCmIDoShm2YZL9Xh0oBp8kiX5V9QBy8LCT4jmwaKk5/zbYfoQoieoGwuGUO+iW5x9Nl4gzOewfbKOkz1nm61j692SF3PSbIIOxfkT8YVDC8T4ZgooqI7oCevHAsSvd+TPvhqaqeehILqhWNTAcpR27p7qk7gAWbIgpPnkfkI0DxI1G02Q9Jq2i6t6EgHqxoIh1LvoFmefj3fQZ3kqqT3Fm9aRxBntKP2CcKScRx2CDpOpeCSuoNTzUNhS17v5PLZOYZ4A747RldtJ2JfiSgKclphleu6bxd2dD5D5CbEJ0PRTeiCqn2Yi42pGELX1bR3EnlhlO+l1Flg2zPYtC2+8yOeQvZ0HABvGcTmwazOQEQzdFWplYYnklUa0cObJ6PbrZ2AisEDU81B0ZVu/vt5w7jtsLXCWJ2AbdLyyWg0JqglwWu2IikTf/Fj3PS5Z0rnDdiAnQOYno5uDCzNvxs2vH3Cu+j5c89wTFxRocTM90RqHXb62t219vFE+1HTIPlzHjGwdff5bfgATlRgmJOR+BQXor1agNJgCAWvMeqkypMwKCjWxPfxtvinLx3OjC81im1mYVxILh14nLBfFo7hIQcECYgrKWF8KRxWU4llco6AA8z0oN7wNw828ZXo1VAXlHuyf/3fmMgWlKIrzUwWlKIqbUQWlKIqb8cyCwh/O1av922E/7oR5ZW1EN4zeAgj9hOuV+Vn7Lx6J/Rj43mBBsW82rXfh56C3CFkwVEG5LZ/4NB0XYH5PN/GzWK/QD5Dpb0K2r+6NfEtl1/dBzsBDC4ruEZLreSjXpe3zY7s8vOBv5QfI9DfhKfuqFduTPvck46EFJfs/DbYCrBZuiOnOBaeUwELU+3a9zLV278j26k1mw1Htr+ehEKGfBXMhkPlkDQYaXVEzC8LsB9DMZ3sg9AM4/dF5y/ZDT0aJoiuLuG5frTdVM8aZaUvmp+hs4Lfm9RuuyTdfrfKjnoeyIMuzbQX2rzifLPC+ga50BBVllOqhL2qiuGhBtuN8hvkAmZ8Qdj6AaVIkSgzAWC0BEgFqZiH3w82TvbJTf3TeFvsBoNGwsGQR1/ncSXM0zMzZsL/B0TsUAAtHPQ/F6V2vmUWeYTJuIH28cpR2PKIi0+dx1QL1xozO0Nqw8LNgNnPzpmmTCFAzC8IiXGgP7NQfnbd1/iTR+ZosLjThWVOR5U7Q4fFeDwMmzv5KuBeUr/3a2HUPqeehIG6n9o0nepE5dKrHowPV4JMsyb+iDlgWFn4WaDYsT/7dMIE4q8mPEtoDO/VH522dP0l0royueBRZXOrSe0RDCEGH4vyE+MKhBWJ8MwUUVEf0hPVjAeLXO/JnXw3N1PNQEN1oLGpgOUo7d0/1SVyALFkQ0nxyPws0G5bFfzifRJzV5EcJ7YGd+qPzts6fJDpfk8Xl5gYpw1HMoMPmiOWT4QpKPQ+FLXUfNJ/H1i/ME+BdM7pyOwz7UlxJgNMSs0zPfbO4u/MBMj8LNBuWG+qntQ7rAoRZhX6I0B7YqT86b2rIonQnkTtHeToWcS3UysISdNgcsfwp+EqZ/BzVz8DOxQJRz0PRFW/9hg3kO2wtfJYnYBt0vLJaDQmqCXBa7YiKRN/8WPc9LlnSucN2ICdA5meBZsNyw7jpz0PxzgHjf/aT2R/WH5w3NYRzFM1+QNF2MfnPpOvoghrnGeBpxE/4fu5XUID+agVKgykQsPaslypDyqygUBPbw9/mm7J8PDe6AVhsMwvzSmJRFCfhIgUFC4gpKGN9KYriJFyjoADzvSk3vA3DizLL8m6/OErN81e4TEEpiuL8VEEpiuJmVEEpiuJmPLOg8Id2Oz6rK4ri09iPge8NFhT7JhRc3dRwQ8B96LYKSlE8gIcWFL2mSa7noRTFi/HQgpJ9QwwKDVQB/bDWVoR+QzPeXJgbHf4yn3bvyGdvvcl8GidfZVRPvdL5LzUmaRN4z7Xr+Rec5yfihn6K4jzgt+b1G67JN1+t8qOeh5JBL+Ign3YEW/LUR0JmLID6YNzMD4lF8XTsb3D0DgXAwlHPQ3F612tGO0qCeESFyGzWAwz+N+NmfkgsiucCG9f+SrgXlK/92th1D3nR56FIR3YnXaxDNNP2g3EzPyQWxXPxhUMLxPhmCiiojugJ68cCxK935M++Gpp50eehSEd2J+mpzGZqdzBu5ofEongurqDU81DYsl/veNYv4E20o1z4mgKfkBkmyv6Pxc38kFgUe+ArZdpgR/UzsHGxQNTzULILG859hyg3RTuyu3akocmqNMT5J+KGfopiP/crKEB/tQKlwRQIqB2slypDyqygUBPbw9/mm7J8PDdSEGTAbWb1+r8fz4pbFBflIgUFL2RzYY/X+f14VtyiuCjXKCjA+NLjcVf1s+IWxRW5TEEpiuL8VEEpiuJmVEEpiuJmPLOg8IfH+L5EvTFRFPfCfgx8b7Cg8MfbDbi6qeGGgPvQbRWU9yTbD8+C9+G+73dckYcWFL2mSa7noRT35lT7gb8Z8JO+YFQF5au85vNQiCzP8I5s9M/5o2X0XJVMT666exMXvIOkMTQukN0hhn5CFvMGGPf9mlnM52x/dLxZPj4k0L95bBt7niGLfNy4dFAhzRhjtSXYCHo58Fvz+g3X5JuvVvlRz0NZkOXZtg77V5xPFnifQVc6gooySvXQFzVRXLQg23E+w3yAzE+IzBvnIO75nJSAhEJRfc5jn+2Pjlfywc4gknUzQcBMwxHZ/JM4s8jHxdpJcwQO0oiXw/4GR+9QACwc9TwUp3e9ZhZ5hsm4gfTxylHa8YiKTJ/HVQvUGzM6Q2vDwk+Imx/XXdG0nT0JdG7p9nIiieCxKeI8fT7SnUSS6JzQjiyObmeyfKAJz4yrnaDD471OCyyA/ZVwLyhf+7Wx6x7yos9DSfJ0/hW34/tGFb3IHDrV49GBavBJluRfUQcsCws/Ic6PvSC9q5Y26LP5DO2PjtfnI91JJInOCWdgu48hMDYqk3xab6opbE6aTdChOH8BfOHQAjG+mQIKqiN6wvqxAPHrHfmzr4ZmXvR5KPvyVHRjsqiB5Sjt3D3VJ3EBsmRBSPPJ/YRoIixKWs6/pg3ncNqRxDL7o+P1+Zi4AEl0TqhfFhO3SpYPNzdIqUNbgw5NAlfHFZR6Hgpb6r5pPo+td5gnwLtsdOV2JPaluJIApyVmmZ77ZnF35wNkfkI0ERK1b7Yu2Xym9nB6ZLwuH+1OInc20a1DAH2OBo5FPhZqZWGJjDuNeA94hqe4R/UzsGJYIOp5KLpDWr9hI/oOWxslyxOwDTpeWa2GBNUEOK12REWib36s+x6XLOncYTuQEyDzE7IwztZl7NC7hPZHx6uGzeWwjijaLhrXBLbGIVk+PpktP4CJSqA7brszRwtHpg/pr1agNJgCAYvJeqkypMwKCjWxPfxtvinLx3OjG4bFNrMwryQW7gLepOazuBMXKSi44c0FMF4PxeGCUvNZ3IdrFBQA93znHXe/3PFO4C3wsYICvM98LuaNLYrbcZmCUhTF+amCUhTFzaiCUhTFzXhmQeEP+fD1e70deBZ+tA9kWSheAvsx8L3BgmLftLrHZsr2aBWUE/LEgsL7ob3JzKriFjy0oOg1TXI9D+XNedZi8SfZL/1ckmfx0IJCC8iSAQoNbCz6L8PdueDSE1iIet+ulz2h3TvyWV1vMp/eycef6gkD2CbL5qekWZ7hHdnon/NHy0s8DyXPJxwXEcYFHZ1Lxw0/8bw1ZbiOIc0e+7aUhiSLT4PfmtdvuCbffLXKj3oeyoIsz7Zl2b/ifLLA+xu60hFUlFGqh76oieKiBdmO8xnmA2R+QtI8k3FJlzhuM2n56qRl87PUq38UlvkrLStMnOXis9jf4OgdCoCFo56H4vSu18wizzAZN5A+XjlKOx5RkenzuGqBemNGZ2htWPgJSfMZO27GBZr+B3SDfqyaEpjnxeulgfWiJnEBWhqHxeeABbC/Eu4F5Wu/NnbdQ+p5KIjb8f1CEb3IHDrV49GBavBJluRfUQcsCws/IZt5spm2J3EB6DGH25wfrx/9O7MFaNkcsFx8Cl84tECMb6aAguqInrB+LED8ekf+7KuhmXoeCqIXAosaWI7Szt1TfRIXIEsWhDSf3E9Imo/IbKZ2SVyALeDQjqRM/Sz9QwPrRU3igha3Oyw+hyso9TwUtuz7E8+O7bMwTwADTK7cBYZ9Ka4kwGmJWabnvlnc3fkAmZ+QNE+TGIA+mxbOF3HJvhmgNZxnftZ68E56TY/EBWgZZfWS8JUyjfeofgYWAAtEPQ9lsRF9h62LLcsTsA06XlmthgTVBDitdkRFom9+rPselyzp3GE7kBMg8xOyzCcYFxHGJU90Tga0HJmfeN4kEbaR9EgMMV4IHAa3vShZgTiqD+mvVqA0mAIBtYP1UmVImRUUamJ7+Nt8U5aP50YuEBlwm1ndr0VRnISLFBQsIKagjPWlKIqTcI2CAtj7c1tc3ofhxYVl69XfSbh6/sUeLlNQiqI4P1VQiqK4GVVQiqK4Gc8sKPzJ6NYHisVOaj6LEPsx8L3BgmLfLIPdSA03BNyHbusCuC3Pms9sfa8Cz9u+73dckYcWFN2DJNfzUIqjXHp9+RsJL/0clocWFJpIlgxQaGCXUOl2dy64BAQWot6362VttHvHfnN01AD0f0U9D4UI/WT07HfMZ1Pz+SzOcTM/Pagi0cP5BEALnbUNztEY5Z6AE2cW8+/2yXqTNGPMrS1BT/I1wG/N6zdck2++WuVHPQ9lQZZn2zrsX3E+WeB9Bl3pCCrKKNVDX9REcdGCbMf5DPMBMj9rKA8W8vnMxgvnYdzMDwFm6opY+CdHJOo8BPbG/8xi/jf7hjRHuLAsXx/7Gxy9QwGwcNTzUJze9ZpZ5Bkm4wbSxytHaccjKjJ9HlctUG/M6AytDQs/a8iQBfTDPVmUtOFc87E2WdyFH2AegkvYutW4Tq8+XawQNZY47BWa8MyE3gk6PN7rtMAk2l8J94LytV8bu+4h9TwUxAZCUcyyjZvq8ehANfgkS/KvqAOWhYWfNS6K82+H2caGqYtJUyZxF34AkuiccAa2O52R3jLMte07pCR5Gtumw6Pm0HtEgULQoTh/AXzh0AIxvpkCCqojesL6sQDx6x35s6+GZup5KIhuTBY1sBylnbun+iQuQJYsCGk+uZ81LoomyKKkTSJImHs7kCaLu+nHDUHnhUXj1mVoISMwcN5mNAGJg0efQ1NmsRzo0CR8dVxBqeehsKXuG971R9Y7zBPgXTa6cjsS+1JcSYDTErNMz32zuLvzATI/a1wUTZBFSbuL+JYmqkgDhHHXfrDNiICdEAB9ioHL0EKdfrd3SVmVsJh/yyKWAx02Ryw/BL5SprhH9TOwc7FA1PNQdIe0fsPG9R22NkqWJ2AbdLyyWg0JqglwWu2IikTf/Fj3PS5Z0rnDdiAnQOYnxBsDzV4TZDMznyhSL6MBwri7/BCSZzifADmicwf7WY6USNfFZgKMQwsxWRLojtvuzP0KCtBfrUBpMAUCagfrpcqQMiso1MT28Lf5piwfz41uGBbbzMK8kli8BlofWC4uyEUKChYQU1DG+lK8BnqbwXJxQa5RUID5XpYb3obhRYRlx2uEkyOLu+tm/igvPG8n5DIFpSiK81MFpSiKm1EFpSiKm/HMgsIf8tX7cCej1uXFsB8D3xssKPZNK9hF1HBDwH3otjbuOTnbunA+93nL9h14aEHRvUNyPQ+lOBX8jYGXfl7JvXloQaGFYskAhQaqAP3X4O5c+g3N+J+YudHhtdfuHfmsrjeZT+/o/6L5uRvaZAnTtmR5hndko3/OHy0v8jwUYLbP5rOp+dyJmiF0o1YinJ+Mxfy4dVwvYjPGWG2KNoIWDvzWvH7DNfnmq1V+1PNQFmR5tq3J/hXnkwXex9CVjqCijFI99EVNFBctyHaczzAfIPOTEdpn85mNl0RALYlNe8difpznnTRHOPEsF1vY3+DoHQqAhaOeh+L0rtfMIs8wGTeQPl45SjseUZHp87hqgXpjRmdobVj4Ccns3bxp2nCu+TgbglQsTAm4cDMaSPpxNGjCM+NqJ+jweK+3BRbV/kq4F5Sv/drYdQ+p56EgNhCKYpZdGKkejw5Ug0+yJP+KOmBZWPgJyeydfzvMNjZMXUwG56RjYeyIonE7hmY/2fy03lRT2Jw0m6BDcV5s4guHFojxzRRQUB3RE9aPBYhf78iffTU0U89DQXTjs6iB5Sjt3D3VJ3EBsmRBSPPJ/YSsxxvOJwAS5t4OpFFctjpOFrfS00DSLxgmKefQIejQJFCscQWlnofClrovedcf2U9hngDv4tGV2/HYl+JKApyWmGV67pvF3Z0PkPnJCO01QRYl7S7iW6aoIo3isrUDBDCW8TOzmB+Li7IAHTZHLL8EfKVM4zqqn4GdiwWinoeiO7D1Gy4A32FrI2Z5ArZBxyur1ZCgmgCn1Y6oSPTNj3Xf45IlnTtsB3ICZH4yQntNkG3MfKJIXWaNReKG85ORzpvzv+UHMFEJdMdtF+d+BQXor1agNJgCAbWD9VJlSJkVFGpie/jbfFOWj+dGNySLbWZhXkksiuIkXKSgYAExBWWsL0VRnIRrFBRgvlfmhrdheNFh2Xo1dHJedVzvyWUKSlEU56cKSlEUN6MKSlEUN+OZBWX+2LI4A4t1sR/7QjsrX3Ed+0Cv/1aO/Rj43mBBsW+K6S65IeA+dFsF5bkcXZfs0/oXXkcc2O6CwvOAM3SueXhoQdG9QHI9D+V9OLou7Xo53dVyV/YXFP5mwymf2/LQghL+nwPAVMJuo5Lr7lxw6ggsRL1v18ucaveOLE9vMgtGNX5+foc2WcK0LVme4R3Z6J/zR8srPA9l97x9cl0IDjJmsrLfHNfo7ZB9OK41R+MCNGIWcloy6LO52pXMA8Bvzes3XJNvvlrlRz0PZUGWZ1ty9q84nyzw/oCudAQVZZTqoS9qorhoQbbjfIb5AJmfkGzesnGRCG61yaEeCPI+gtPAzZM9kI0LLGmiADFB8ZD9elwhR+MS6Hk5847mbZiZZ2F/g6N3KAAWjnoeitO7XjOLPMNk3ED6eOUo7XhERabP46oF6o0ZnaG1YeEnxM2Ppuc6OrdhaIL6sSAs0pjtF84VzRPOD9mvx7XJ/rjhPCxAz8kUPRKYIfsr4V5QvvZrY9c9pJ6HgthAKIqZ6kXm0Kkejw5Ug0+yJP+KOmBZWPgJcX40vWxcJFIjnTvibLl3kIazz8YF+KFRnkft83GN9j3bo3EJamZhB5iYCfosfOHQAjG+mQIKqiN6wvqxAPHrHfmzr4Zm6nkoiISVuBpYjtLO3VN9EhcgSxaENJ/cT4gmwqKkp/mxfnRLAp074mxHbxZnn49r0Pc8j9pTvGRcM0fjKhSHhR2g52SKHokrKPU8FLY0Cw9nx9YpzBPAAJMrt7GwL8WVBDgtMcv03DeLuzsfIPMToomwKOnZxAD02fQkctuOdSF0tCwbZnvUTMaLfXLIfj2umaNxlXlcayROmomFM5nsj+pnYIKwQNTzUEgPE9b69QsDzn2HrWXO8gRsg45XVqshQTUBTqsdUZHomx/rvsclSzp32A7kBMj8hGgiLJp5C8dFDCGafx8UMHElSOKBMPa2rY+rp+P3ySH7xbhCDsVdjyvEZEMMExVytHBk+pD+agVKgykQUDtYL1WGlFlBoSa2h7/NN2X5eG7a+uIWYLHNLMwriUVRnISLFBQsIKagjPWlKIqTcI2CAoz3oO9YTYabfMvW3XhxE2r+93CZglIUxfmpglIUxc2oglIUxY3488//AwdtIhEERa0wAAAAAElFTkSuQmCC;" vertex="1" parent="1">
          <mxGeometry x="204" y="220" width="368" height="193" as="geometry" />
        </mxCell>
      </root>
    </mxGraphModel>
  </diagram>
</mxfile>
